<svg xmlns="http://www.w3.org/2000/svg" data-name="Group 722" viewBox="0 0 40.32 40.116"><defs><clipPath id="linkedin_svg__a"><path fill="none" d="M0 0h40.32v40.116H0z" data-name="Rectangle 287"/></clipPath></defs><g fill="currentColor" fill-rule="evenodd" clip-path="url(#linkedin_svg__a)" data-name="Group 557"><path d="M21.536 39.991c3.768 0-3.279-19.949 5.914-19.92 8.2.026 1.612 19.92 5.451 19.92 8.581 0 7.4.622 7.322-3.631-.072-4.051.208-10.5-.168-13.89-1.277-11.509-10.164-12.063-17.418-6.85l-.561-2.42-7.708-.078c-.631 3.778-.25 9.769-.25 13.962 0 15.21-1.925 12.907 7.418 12.907" data-name="Path 337"/><path d="M.64 38.873c0 1.735 2.6 1.122 4.485 1.129 1.79.007 3.995.548 3.995-1.129 0-4.776.359-22.3-.272-25.68l-8-.08c-.48 5.078-.206 19.742-.206 25.76" data-name="Path 338"/><path d="M9.771 4.769C9.771-1.667.027-1.508 0 4.76s9.771 6.537 9.771.01" data-name="Path 339"/></g></svg>