<svg xmlns="http://www.w3.org/2000/svg" viewBox="0 0 24 24"><path fill="currentColor" d="M0 12c0 5.123 3.211 9.497 7.73 11.218-.11-.937-.227-2.482.025-3.566.217-.928 1.4-5.909 1.4-5.909s-.357-.715-.357-1.774c0-1.66.962-2.9 2.161-2.9 1.02 0 1.512.765 1.512 1.68 0 1.024-.652 2.554-.988 3.972-.28 1.187.595 2.155 1.767 2.155 2.121 0 3.756-2.236 3.756-5.462 0-2.855-2.052-4.851-4.981-4.851-3.392 0-5.383 2.545-5.383 5.176 0 1.024.395 2.123.888 2.72a.36.36 0 0 1 .083.343c-.09.383-.293 1.187-.334 1.353-.052.216-.174.262-.4.158-1.492-.694-2.424-2.875-2.424-4.627 0-3.769 2.737-7.229 7.892-7.229 4.144 0 7.365 2.953 7.365 6.899 0 4.116-2.595 7.431-6.199 7.431-1.211 0-2.348-.63-2.738-1.373 0 0-.599 2.282-.744 2.84-.282 1.084-1.064 2.456-1.549 3.235C9.584 23.815 10.77 24 12 24c6.627 0 12-5.373 12-12S18.627 0 12 0 0 5.373 0 12z"/></svg>
