<svg xmlns="http://www.w3.org/2000/svg" viewBox="0 0 24 24"><path fill="currentColor" d="M12.186 24h-.007c-3.581-.024-6.334-1.205-8.184-3.509C2.35 18.44 1.5 15.586 1.472 12.01v-.017c.03-3.579.879-6.43 2.525-8.482C5.845 1.205 8.6.024 12.18 0h.014c2.746.02 5.043.725 6.826 2.098 1.677 1.29 2.858 3.13 3.509 5.467l-2.04.569c-1.104-3.96-3.898-5.984-8.304-6.015-2.91.022-5.11.936-6.54 2.717C4.307 6.504 3.616 8.914 3.589 12c.027 3.086.718 5.496 2.056 7.164 1.43 1.781 3.63 2.695 6.54 2.717 2.623-.02 4.358-.631 5.8-2.045 1.647-1.613 1.618-3.593 1.088-4.828-.313-.734-.882-1.34-1.657-1.796-.192 1.352-.622 2.446-1.284 3.263-.886 1.09-2.142 1.685-3.732 1.716-1.212.023-2.386-.259-3.301-.771-1.098-.628-1.734-1.653-1.792-2.885-.108-2.418 1.803-4.155 4.762-4.325a17.51 17.51 0 0 1 3.06.099c-.126-.762-.383-1.365-.766-1.795-.529-.594-1.348-.9-2.434-.907h-.028c-.877 0-2.077.242-2.844 1.395L7.6 7.622c1.028-1.535 2.699-2.38 4.71-2.38h.028c3.36.019 5.364 2.077 5.567 5.669.116.05.23.101.343.156 1.588.762 2.746 1.914 3.348 3.328.83 1.947.905 5.121-1.746 7.634-1.855 1.756-4.106 2.547-7.26 2.571zm1.36-11.802c-.243 0-.49.007-.741.024-1.777.122-2.836.966-2.777 2.203.06 1.276 1.302 1.87 2.499 1.845 1.187-.023 2.702-.469 2.966-3.556a10.803 10.803 0 0 0-1.947-.516z"/></svg>
