<svg xmlns="http://www.w3.org/2000/svg" viewBox="0 0 49.291 36.687"><defs><clipPath id="youtube_svg__a"><path fill="none" d="M0 0h49.291v36.687H0z" data-name="Rectangle 288"/></clipPath></defs><g data-name="Group 723"><g clip-path="url(#youtube_svg__a)" data-name="Group 559"><path fill="currentColor" fill-rule="evenodd" d="M19 24.606c-.6-2.517-.173-6.291-.192-9.177-.023-3.488-.879-6.161 2.192-4.629 3.434 1.718 8.57 5.265 11.932 6.436-.9 1.975.681.3-1.69 1.828-.524.337-1.126.554-1.629.821-3.134 1.669-8.889 5.797-10.613 4.721M.1 14.416c0 8.851-1.385 19.548 6.026 21.4 5.307 1.327 29.829.932 35.841.169 6.193-.785 7.29-6.485 7.29-12.385 0-23.143 2-23.9-24.788-23.547C18.4.135 11.868-.189 6.131.774.717 1.684.1 8.129.1 14.416" data-name="Path 340"/></g></g></svg>