<?xml version="1.0" encoding="UTF-8"?>
<svg width="80px" height="60px" viewBox="0 0 80 60" version="1.1" xmlns="http://www.w3.org/2000/svg" xmlns:xlink="http://www.w3.org/1999/xlink">
    <title>img</title>
    <defs>
        <path d="M0,0 L80,0 L80,60 L0,60 L0,0 Z" id="path-1"></path>
    </defs>
    <g id="img" stroke="none" fill="none" xlink:href="#path-1">
        <use fill="#FFFFFF" fill-rule="evenodd" xlink:href="#path-1"></use>
        <rect id="pane" stroke="#CDD8E4" stroke-width="1" x="0.5" y="0.5" width="79" height="59" rx="5"></rect>
        <g id="image-copy" stroke-width="1" fill-rule="evenodd" transform="translate(21, 19)" stroke="#5A6572">
            <rect id="pane" x="0.5" y="0.5" width="37" height="21" rx="2"></rect>
        </g>
        <rect id="chip-copy-3" fill="#CDD8E4" fill-rule="evenodd" x="6" y="6" width="56" height="4" rx="2"></rect>
        <rect id="chip-copy-5" fill="#CDD8E4" fill-rule="evenodd" x="6" y="12" width="62" height="4" rx="2"></rect>
        <rect id="chip-copy-4" fill="#CDD8E4" fill-rule="evenodd" x="6" y="50" width="56" height="4" rx="2"></rect>
        <rect id="chip-copy-6" fill="#CDD8E4" fill-rule="evenodd" x="6" y="44" width="62" height="4" rx="2"></rect>
        <g id="&lt;img&gt;" stroke-width="1" fill-rule="evenodd" transform="translate(25, 23)" fill="#5A6572">
            <polygon id="Path" fill-rule="nonzero" points="4.9065 6.031 4.2405 4.897 1.0905 6.679 1.0905 8.137 4.2405 9.919 4.9065 8.776 2.2695 7.399"></polygon>
            <path d="M8.9565,4.159 C9.5505,4.159 9.8925,3.835 9.8925,3.259 C9.8925,2.728 9.5415,2.422 8.9205,2.422 C8.2905,2.422 7.9305,2.746 7.9305,3.277 C7.9305,3.835 8.2995,4.159 8.9565,4.159 Z M11.0445,8.641 C10.8285,8.749 10.5765,8.839 10.1895,8.839 C9.7305,8.839 9.6315,8.605 9.6315,8.182 L9.6315,4.96 L6.9855,4.96 L6.8955,6.085 L8.1645,6.049 L8.1645,8.29 C8.1645,9.433 8.6415,10.126 9.9375,10.126 C10.5045,10.126 10.9365,9.991 11.1705,9.838 L11.0445,8.641 Z" id="Shape" fill-rule="nonzero"></path>
            <path d="M16.6245,4.834 C15.9945,4.834 15.6255,5.464 15.4815,5.77 L15.4815,5.779 L15.4275,5.779 C15.3825,5.194 15.1665,4.834 14.6985,4.834 C14.1225,4.834 13.7805,5.248 13.5645,5.779 L13.5195,5.779 L13.3215,4.96 L12.4935,4.96 L12.4935,10 L13.7535,10 L13.7535,6.265 C13.8525,6.157 13.9785,6.085 14.0955,6.085 C14.3115,6.085 14.4015,6.22 14.4015,6.445 L14.4015,10 L15.6255,10 L15.6255,6.283 C15.7335,6.166 15.8505,6.085 15.9765,6.085 C16.1835,6.085 16.2825,6.166 16.2825,6.499 L16.2825,10 L17.5335,10 L17.5335,6.31 C17.5335,5.266 17.2095,4.834 16.6245,4.834 Z" id="Path" fill-rule="nonzero"></path>
            <path d="M23.3295,6.031 L23.4375,4.933 C21.6285,4.933 21.5655,4.834 20.8365,4.834 C19.6665,4.834 18.9645,5.5 18.9645,6.598 C18.9645,7.084 19.0995,7.48 19.3605,7.777 C18.9555,8.011 18.6765,8.326 18.6765,8.803 C18.6765,9.226 18.8475,9.694 19.5315,9.874 C19.1355,10.027 18.9195,10.378 18.9195,10.837 C18.9195,11.575 19.6305,12.07 20.7915,12.07 L21.0705,12.07 C22.4115,12.07 23.1765,11.26 23.1765,10.27 C23.1765,9.496 22.7175,8.956 21.6735,8.893 L20.4315,8.821 C19.8555,8.785 19.6845,8.704 19.6845,8.452 C19.6845,8.344 19.7385,8.227 19.8555,8.146 C20.1255,8.272 20.4585,8.344 20.8365,8.344 C22.0785,8.344 22.6995,7.552 22.6995,6.769 C22.6995,6.454 22.5915,6.166 22.4025,5.941 L22.4205,5.914 C22.7175,5.968 23.0235,6.004 23.3295,6.031 Z M20.8365,7.255 C20.4675,7.255 20.2515,7.012 20.2515,6.589 C20.2515,6.175 20.4765,5.914 20.8365,5.914 C21.2055,5.914 21.4035,6.175 21.4035,6.589 C21.4035,7.012 21.2055,7.255 20.8365,7.255 Z M21.2235,10.054 C21.7995,10.099 21.8805,10.234 21.8805,10.45 C21.8805,10.774 21.5835,10.936 21.0795,10.936 L20.9895,10.936 C20.3685,10.936 20.0805,10.729 20.0805,10.387 C20.0805,10.171 20.1435,10.054 20.2155,9.964 L21.2235,10.054 Z" id="Shape" fill-rule="nonzero"></path>
            <polygon id="Path" fill-rule="nonzero" points="25.7595 4.897 25.0935 6.031 27.7305 7.399 25.0935 8.776 25.7595 9.919 28.9095 8.137 28.9095 6.679"></polygon>
        </g>
    </g>
</svg>