<?xml version="1.0" encoding="utf-8"?>
<!-- Generator: Adobe Illustrator 27.3.1, SVG Export Plug-In . SVG Version: 6.00 Build 0)  -->
<svg version="1.1" id="Layer_1" xmlns:serif="http://www.serif.com/"
	 xmlns="http://www.w3.org/2000/svg" xmlns:xlink="http://www.w3.org/1999/xlink" x="0px" y="0px" viewBox="0 0 1920 1080"
	 style="enable-background:new 0 0 1920 1080;" xml:space="preserve">
<g transform="matrix(1,0,0,1,0,-120)">
</g>
<g>
	<path d="M533.3,453.5c10.1-7.1,23.6-15.4,40.2-24.9l-19-31.9c-11.1,6.7-24.6,15.4-41,26c-16.3,10.6-31.7,23.6-46.2,38.8
		c-14.4,15.2-26.5,32.3-36.1,50.9c-10,18.8-14.9,39.7-14.9,62.7c0,32.6,6.5,58.9,19.7,79.1c13,19.8,34.9,29.7,65.2,29.7
		c19.5,0,34.7-6.3,45.7-19.1c10.7-11.4,16.7-26.3,17-41.9c0-20.8-6.3-36.6-19.1-47.2c-12.4-11-29.5-16.5-51.5-16.5h-25.5
		c2.2-18.4,5.9-33.5,11.1-45.1c5.7-12.3,13.4-23.7,22.8-33.5C511.2,470.3,521.7,461.2,533.3,453.5L533.3,453.5z M729.6,453.5
		c10.2-7.1,23.7-15.4,40.3-24.9l-19-31.9c-11.1,6.7-24.6,15.4-41,26s-31.7,23.6-46.2,38.8c-14.4,15.2-26.5,32.3-36.1,50.9
		c-10,18.8-14.9,39.7-14.9,62.7c0,32.6,6.5,58.9,19.7,79.1c13,19.8,34.9,29.7,65.2,29.7c19.5,0,34.7-6.3,45.7-19.1
		c10.7-11.4,16.7-26.3,17-41.9c0-20.8-6.3-36.6-19.1-47.2c-12.4-11-29.5-16.5-51.5-16.5h-25.5c1.4-15.3,5-30.3,10.7-44.6
		c5.3-11.8,13-23,23.3-34C707.6,470.3,718.1,461.2,729.6,453.5L729.6,453.5z M1506,280.1H414v-90H1506V280.1z M1506,889.9H414v-90
		H1506V889.9z M1506,483.2H871.8v-90H1506V483.2z M1506,686.8H871.8v-90H1506V686.8z"/>
</g>
</svg>
