<?xml version="1.0" encoding="utf-8"?>
<!-- Generator: Adobe Illustrator 27.1.1, SVG Export Plug-In . SVG Version: 6.00 Build 0)  -->
<svg version="1.1" id="Layer_1" xmlns:serif="http://www.serif.com/"
	 xmlns="http://www.w3.org/2000/svg" xmlns:xlink="http://www.w3.org/1999/xlink" x="0px" y="0px" viewBox="0 0 1920 1080"
	 style="enable-background:new 0 0 1920 1080;" xml:space="preserve">
<style type="text/css">
	.st0{fill-rule:evenodd;clip-rule:evenodd;}
	.st1{fill:none;}
</style>
<g>
	<path class="st0" d="M1072.5,435.5v51.8H853v-51.8H1072.5z M1635,357.8v51.8H853v-51.8H1635z M1530.8,280.1v51.8H853v-51.8H1530.8
		L1530.8,280.1z M1635,202.4v51.8H853v-51.8H1635z M1530.8,124.6v51.8H853v-51.8H1530.8z"/>
	<g id="Page-1">
		<g id="icon" transform="translate(64.000000, 64.000000)">
			<path id="Combined-Shape" class="st0" d="M705,46v386.7H221V46H705z M358.7,189.9l-83.9,107.7v92.1h376.5v-77.1l-80.7-64.4
				L488,314.1L358.7,189.9z M530.2,131.9c-22.2,0-40.3,14.4-40.3,32.2c0,17.8,18.1,32.2,40.3,32.2c22.2,0,40.3-14.4,40.3-32.2
				S552.6,131.9,530.2,131.9z"/>
		</g>
	</g>
</g>
<g>
	<path class="st0" d="M1072.5,905.7v51.8H853v-51.8H1072.5z M1635,828v51.8H853V828H1635z M1530.8,750.3v51.8H853v-51.8
		L1530.8,750.3L1530.8,750.3z M1635,672.5v51.8H853v-51.8H1635z M1530.8,594.7v51.8H853v-51.8H1530.8z"/>
	<g id="Page-1_00000129896241274878754150000001610665672317621159_">
		<g id="icon_00000096019444273294777870000011018181853321021828_" transform="translate(64.000000, 64.000000)">
			<path id="Combined-Shape_00000013176482818096957460000017392359166901304205_" class="st0" d="M705,516.2v386.7H221V516.2H705z
				 M358.7,660.1l-83.9,107.7v92.1h376.5v-77.1l-80.7-64.4L488,784.3L358.7,660.1z M530.2,602.1c-22.2,0-40.3,14.4-40.3,32.2
				s18.1,32.2,40.3,32.2c22.2,0,40.3-14.4,40.3-32.2S552.6,602.1,530.2,602.1z"/>
		</g>
	</g>
</g>
<rect x="150" class="st1" width="1620" height="1080"/>
</svg>
