<?xml version="1.0" encoding="utf-8"?>
<!-- Generator: Adobe Illustrator 27.3.1, SVG Export Plug-In . SVG Version: 6.00 Build 0)  -->
<svg version="1.1" id="Layer_1" xmlns:serif="http://www.serif.com/"
	 xmlns="http://www.w3.org/2000/svg" xmlns:xlink="http://www.w3.org/1999/xlink" x="0px" y="0px" viewBox="0 0 1920 1080"
	 style="enable-background:new 0 0 1920 1080;" xml:space="preserve">
<style type="text/css">
	.st0{fill-rule:evenodd;clip-rule:evenodd;}
</style>
<g transform="matrix(1,0,0,1,0,-120)">
	<g>
		<g>
			<g id="Page-1">
				<g id="icon" transform="translate(64.000000, 64.000000)">
					<path id="Combined-Shape" class="st0" d="M848.2,180.1v570.4H244.6V180.1H848.2z M416.2,392.3L311.6,551.2v135.9H781V573.3
						l-100.6-95l-102.9,97.3L416.2,392.3z M630.2,306.8c-27.8,0-50.2,21.3-50.2,47.6c0,26.3,22.5,47.6,50.2,47.6
						c27.7,0,50.2-21.3,50.2-47.6C680.6,328.1,658,306.8,630.2,306.8z"/>
				</g>
			</g>
			<path d="M381.6,922v51.8h457.5V922H381.6z M446.9,1025.7v51.8h326.8v-51.8H446.9z"/>
		</g>
		<g>
			<g id="Page-1_00000060022633529723316960000013651778648105681339_">
				<g id="icon_00000041981265622398171590000005483478009445143434_" transform="translate(64.000000, 64.000000)">
					<path id="Combined-Shape_00000003818078081888736410000005315893993749929347_" class="st0" d="M1547.4,178.5v570.4H943.8
						V178.5H1547.4z M1115.5,390.7l-104.6,158.9v135.9h469.4V571.7l-100.6-95l-102.9,97.3L1115.5,390.7z M1329.4,305.2
						c-27.8,0-50.2,21.3-50.2,47.6c0,26.3,22.5,47.6,50.2,47.6c27.8,0,50.2-21.3,50.2-47.6C1379.7,326.5,1357.3,305.2,1329.4,305.2z
						"/>
				</g>
			</g>
			<path d="M1080.9,920.5v51.8h457.5v-51.8H1080.9z M1146.2,1024.2v51.8h326.8v-51.8H1146.2z"/>
		</g>
	</g>
</g>
</svg>
