<?xml version="1.0" encoding="utf-8"?>
<!-- Generator: Adobe Illustrator 27.1.1, SVG Export Plug-In . SVG Version: 6.00 Build 0)  -->
<svg version="1.1" id="Layer_1" xmlns:serif="http://www.serif.com/"
	 xmlns="http://www.w3.org/2000/svg" xmlns:xlink="http://www.w3.org/1999/xlink" x="0px" y="0px" viewBox="0 0 1920 1080"
	 style="enable-background:new 0 0 1920 1080;" xml:space="preserve">
<style type="text/css">
	.st0{fill-rule:evenodd;clip-rule:evenodd;}
	.st1{fill:#FFFFFF;}
	.st2{fill-rule:evenodd;clip-rule:evenodd;fill:#FFFFFF;}
	.st3{fill:none;}
</style>
<g>
	<g transform="matrix(16.8889,0,0,21.1576,0,229.53)">
		<rect x="8.9" y="19" class="st0" width="47.6" height="16.2"/>
		<path class="st1" d="M14.3,26.7v1h15.5v-1H14.3z M14.3,28.7v1h11v-1H14.3z"/>
	</g>
	<g transform="matrix(16.8889,0,0,21.1576,273.333,229.53)">
		<rect x="41.1" y="18.9" class="st0" width="47.5" height="16.2"/>
		<path class="st1" d="M46.5,26.7v1H62v-1H46.5z M46.5,28.7v1h11v-1H46.5z"/>
	</g>
	<g>
		<g transform="matrix(16.8889,0,0,44.3921,546.667,-111.925)">
			<rect x="-23.5" y="4.9" class="st0" width="95.9" height="11.5"/>
		</g>
		<g transform="matrix(8.5501,0,0,3.7337,609.208,265.354)">
			<rect x="15.8" y="20.1" class="st2" width="50.4" height="9.7"/>
		</g>
	</g>
</g>
<rect x="150" class="st3" width="1620" height="1080"/>
</svg>
