<?xml version="1.0" encoding="utf-8"?>
<!-- Generator: Adobe Illustrator 27.7.0, SVG Export Plug-In . SVG Version: 6.00 Build 0)  -->
<svg version="1.1" id="Layer_1" xmlns:serif="http://www.serif.com/"
	 xmlns="http://www.w3.org/2000/svg" xmlns:xlink="http://www.w3.org/1999/xlink" x="0px" y="0px" viewBox="0 0 1920 1080"
	 style="enable-background:new 0 0 1920 1080;" xml:space="preserve">
<style type="text/css">
	.st0{fill-rule:evenodd;clip-rule:evenodd;}
	.st1{fill:#FFFFFF;}
	.st2{fill:none;}
</style>
<g>
	<g transform="matrix(16.8889,0,0,21.1576,0,229.53)">
		<rect x="18.6" y="8.1" class="st0" width="37.8" height="12.9"/>
		<path class="st1" d="M22.9,14.3v0.8h12.3v-0.8H22.9z M22.9,15.9v0.8h8.8v-0.8H22.9z"/>
	</g>
	<g transform="matrix(16.8889,0,0,21.1576,0,229.53)">
		<rect x="18.6" y="-9.2" class="st0" width="24.4" height="15.9"/>
		<path class="st1" d="M21.4-1.7v1h7.9v-1H21.4z M21.4,0.3v1H27v-1H21.4z"/>
	</g>
	<g transform="matrix(16.8889,0,0,21.1576,0,229.53)">
		<rect x="44.6" y="-9.2" class="st0" width="24.4" height="15.9"/>
		<path class="st1" d="M47.4-1.7v1h7.9v-1H47.4z M47.4,0.3v1H53v-1H47.4z"/>
	</g>
	<g transform="matrix(16.8889,0,0,21.1576,0,229.53)">
		<rect x="70.6" y="-9.1" class="st0" width="24.4" height="15.9"/>
		<path class="st1" d="M73.3-1.6v1h7.9v-1H73.3z M73.3,0.4v1H79v-1H73.3z"/>
	</g>
	<g transform="matrix(16.8889,0,0,21.1576,0,229.53)">
		<rect x="18.7" y="22.6" class="st0" width="24.4" height="15.9"/>
		<path class="st1" d="M21.5,30.2v1h7.9v-1H21.5z M21.5,32.1v1h5.6v-1H21.5z"/>
	</g>
	<g transform="matrix(16.8889,0,0,21.1576,0,229.53)">
		<rect x="44.7" y="22.6" class="st0" width="24.4" height="15.9"/>
		<path class="st1" d="M47.5,30.2v1h7.9v-1H47.5z M47.5,32.1v1h5.6v-1H47.5z"/>
	</g>
	<g transform="matrix(16.8889,0,0,21.1576,0,229.53)">
		<rect x="70.7" y="22.7" class="st0" width="24.4" height="15.9"/>
		<path class="st1" d="M73.4,30.2v1h7.9v-1H73.4z M73.4,32.2v1h5.6v-1H73.4z"/>
	</g>
	<g transform="matrix(16.8889,0,0,21.1576,273.333,229.53)">
		<rect x="41.6" y="8.2" class="st0" width="37.3" height="12.9"/>
		<path class="st1" d="M45.4,14.4v0.8h12.3v-0.8H45.4z M45.4,16v0.8h8.8V16H45.4z"/>
	</g>
</g>
<rect x="150" class="st2" width="1620" height="1080"/>
</svg>
