<?xml version="1.0" encoding="utf-8"?>
<!-- Generator: Adobe Illustrator 27.3.1, SVG Export Plug-In . SVG Version: 6.00 Build 0)  -->
<svg version="1.1" id="Layer_1" xmlns:serif="http://www.serif.com/"
	 xmlns="http://www.w3.org/2000/svg" xmlns:xlink="http://www.w3.org/1999/xlink" x="0px" y="0px" viewBox="0 0 1920 1080"
	 style="enable-background:new 0 0 1920 1080;" xml:space="preserve">
<style type="text/css">
	.st0{fill-rule:evenodd;clip-rule:evenodd;}
	.st1{fill:none;}
</style>
<g>
	<path class="st0" d="M412.6,735.7V814H233v-78.3H412.6z M873,618.3v78.3H233v-78.3H873z M787.7,500.9v78.3H233v-78.3L787.7,500.9
		L787.7,500.9z M873,383.5v78.3H233v-78.3H873z M787.7,266v78.3H233V266H787.7z"/>
	<g id="Page-1">
		<g id="icon" transform="translate(64.000000, 64.000000)">
			<path id="Combined-Shape" class="st0" d="M1532.3,182.5v584H884v-584H1532.3z M1068.4,399.9L956,562.5v139.1h504.3V585.1
				l-108.1-97.3l-110.6,99.6L1068.4,399.9z M1298.2,312.3c-29.8,0-54,21.8-54,48.7c0,26.9,24.2,48.7,54,48.7c29.8,0,54-21.8,54-48.7
				C1352.2,334.1,1328.1,312.3,1298.2,312.3z"/>
		</g>
	</g>
</g>
<rect x="150" class="st1" width="1620" height="1080"/>
</svg>
