<?xml version="1.0" encoding="utf-8"?>
<!-- Generator: Adobe Illustrator 27.1.1, SVG Export Plug-In . SVG Version: 6.00 Build 0)  -->
<svg version="1.1" id="Layer_1" xmlns:serif="http://www.serif.com/"
	 xmlns="http://www.w3.org/2000/svg" xmlns:xlink="http://www.w3.org/1999/xlink" x="0px" y="0px" viewBox="0 0 1920 1080"
	 style="enable-background:new 0 0 1920 1080;" xml:space="preserve">
<style type="text/css">
	.st0{fill-rule:evenodd;clip-rule:evenodd;}
	.st1{fill:none;}
</style>
<g>
	<path class="st0" d="M1187,735.7V814H948v-78.3H1187z M1799.5,618.3v78.3H948v-78.3H1799.5z M1686,500.9v78.3H948v-78.3H1686z
		 M1799.5,383.5v78.3H948v-78.3H1799.5z M1686,266v78.3H948V266H1686z"/>
	<g id="Page-1">
		<g id="icon" transform="translate(64.000000, 64.000000)">
			<path id="Combined-Shape" class="st0" d="M815.3,180v584H167V180H815.3z M351.4,397.4L239,560v139.1h504.3V582.6l-108.1-97.3
				l-110.6,99.6L351.4,397.4z M581.2,309.8c-29.8,0-54,21.8-54,48.7c0,26.9,24.2,48.7,54,48.7s54-21.8,54-48.7
				C635.2,331.6,611.1,309.8,581.2,309.8z"/>
		</g>
	</g>
</g>
<rect x="150" class="st1" width="1620" height="1080"/>
</svg>
