<?xml version="1.0" encoding="utf-8"?>
<!-- Generator: Adobe Illustrator 27.5.0, SVG Export Plug-In . SVG Version: 6.00 Build 0)  -->
<svg version="1.1" id="Layer_1" xmlns:serif="http://www.serif.com/"
	 xmlns="http://www.w3.org/2000/svg" xmlns:xlink="http://www.w3.org/1999/xlink" x="0px" y="0px" viewBox="0 0 1920 1080"
	 style="enable-background:new 0 0 1920 1080;" xml:space="preserve">
<style type="text/css">
	.st0{fill:none;}
	.st1{fill-rule:evenodd;clip-rule:evenodd;}
	.st2{fill-rule:evenodd;clip-rule:evenodd;fill:#FFFFFF;}
</style>
<rect x="149.3" class="st0" width="1600.6" height="1080"/>
<g>
	<g>
		<g>
			<g id="Page-1">
				<g id="icon" transform="translate(64.000000, 64.000000)">
					<path id="Combined-Shape" class="st1" d="M672.6,409.7v545h-605v-545H672.6z M239.6,612.6L134.7,764.3v129.8h470.6V785.4
						l-100.9-90.8l-103.2,92.9L239.6,612.6z M454.1,530.8c-27.8,0-50.4,20.3-50.4,45.4c0,25.1,22.6,45.4,50.4,45.4
						s50.4-20.3,50.4-45.4C504.5,551.2,482,530.8,454.1,530.8z"/>
				</g>
			</g>
		</g>
		<g>
			<rect x="878.3" y="515.1" class="st2" width="866.9" height="480.1"/>
			<g transform="matrix(24,0,0,30.3199,440,18.6545)">
				<path class="st1" d="M56.2,15H15.5v18h40.7V15z M53.1,16.6v14.7H18.4V16.6H53.1z"/>
			</g>
			<g>
				<g transform="matrix(8.26019,0,0,2.76916,506.667,349.304)">
					<rect x="56.6" y="183.5" class="st1" width="24.1" height="18"/>
				</g>
				<g transform="matrix(16,0,0,2.76916,506.667,289.304)">
					<rect x="29.3" y="106.3" class="st1" width="40.7" height="18"/>
				</g>
				<g transform="matrix(16,0,0,5.53832,506.667,188.609)">
					<rect x="29.3" y="89.9" class="st1" width="40.7" height="21.5"/>
				</g>
			</g>
		</g>
	</g>
	<g>
		<rect x="131.5" y="61.3" class="st1" width="794.3" height="342.8"/>
		<rect x="994.2" y="61.3" class="st1" width="794.3" height="342.8"/>
	</g>
</g>
</svg>
