<?xml version="1.0" encoding="utf-8"?>
<!-- Generator: Adobe Illustrator 27.5.0, SVG Export Plug-In . SVG Version: 6.00 Build 0)  -->
<svg version="1.1" id="Layer_1" xmlns:serif="http://www.serif.com/"
	 xmlns="http://www.w3.org/2000/svg" xmlns:xlink="http://www.w3.org/1999/xlink" x="0px" y="0px" viewBox="0 0 1920 1080"
	 style="enable-background:new 0 0 1920 1080;" xml:space="preserve">
<style type="text/css">
	.st0{fill:none;}
	.st1{fill-rule:evenodd;clip-rule:evenodd;}
	.st2{fill-rule:evenodd;clip-rule:evenodd;fill:#FFFFFF;}
</style>
<rect x="149.3" class="st0" width="1600.6" height="1080"/>
<g>
	<g>
		<g>
			<g id="Page-1">
				<g id="icon" transform="translate(64.000000, 64.000000)">
					<path id="Combined-Shape" class="st1" d="M672.4,203.4v545h-605v-545H672.4z M239.4,406.3L134.5,558v129.8h470.6V579.1
						l-100.9-90.8L401,581.2L239.4,406.3z M453.9,324.5c-27.8,0-50.4,20.3-50.4,45.4c0,25.1,22.6,45.4,50.4,45.4
						s50.4-20.3,50.4-45.4C504.3,344.9,481.8,324.5,453.9,324.5z"/>
				</g>
			</g>
		</g>
		<g>
			<rect x="878.1" y="308.8" class="st2" width="866.9" height="480.1"/>
			<g transform="matrix(24,0,0,30.3199,440,18.6545)">
				<path class="st1" d="M56.2,8.2H15.5v18h40.7V8.2z M53.1,9.8v14.7H18.4V9.8H53.1z"/>
			</g>
			<g>
				<g transform="matrix(8.26019,0,0,2.76916,506.667,349.304)">
					<rect x="56.6" y="109" class="st1" width="24.1" height="18"/>
				</g>
				<g transform="matrix(16,0,0,2.76916,506.667,289.304)">
					<rect x="29.3" y="31.8" class="st1" width="40.7" height="18"/>
				</g>
				<g transform="matrix(16,0,0,5.53832,506.667,188.609)">
					<rect x="29.3" y="52.6" class="st1" width="40.7" height="21.5"/>
				</g>
			</g>
		</g>
	</g>
</g>
</svg>
