<?xml version="1.0" encoding="utf-8"?>
<!-- Generator: Adobe Illustrator 28.0.0, SVG Export Plug-In . SVG Version: 6.00 Build 0)  -->
<svg version="1.1" id="Layer_1" xmlns:serif="http://www.serif.com/"
	 xmlns="http://www.w3.org/2000/svg" xmlns:xlink="http://www.w3.org/1999/xlink" x="0px" y="0px" viewBox="0 0 1920 1080"
	 style="enable-background:new 0 0 1920 1080;" xml:space="preserve">
<g transform="matrix(1,0,0,1,0,-120)">
</g>
<g>
	<g>
		<path d="M876.1,557.3C873.2,558.7,871.6,559.5,876.1,557.3L876.1,557.3z"/>
		<path d="M882.9,554c-0.4,0.2-1.1,0.5-2,1c-0.1,0-0.1,0.1-0.2,0.1C881.7,554.6,882.4,554.3,882.9,554z"/>
		<path d="M882.9,554C883.7,553.6,883.5,553.7,882.9,554L882.9,554z"/>
		<path d="M879.5,555.7c0.4-0.2,0.7-0.3,1.2-0.6c0.1,0,0.1-0.1,0.2-0.1c12.5-6.1,24.1-13.3,35-21.2l23.5,23.5l18.7,18.7l54-54
			l-18.6-18.6L970,479.9c21.9-30.4,36.3-65.6,42.3-102.4h59.6v-76.4h-59.4c-6-37-20.6-71.8-42.5-102.2l2.3-2.3l39.9-39.9l-54-54
			l-42,42c-30.4-21.9-65.6-36.3-102.4-42.3V42.9h-76.4v59.4c-37,6-71.8,20.6-102.2,42.5L593,102.6l-54,54l42,42
			c-21.9,30.4-36.3,65.6-42.3,102.4H479v76.4h59.4c6,37,20.6,71.8,42.5,102.2l-42.2,42.2l54,54l40-40l2-2
			c30.4,21.9,65.6,36.3,102.4,42.3v59.6h76.4v-59.4c22.7-3.7,45.3-10.6,67-21.2C880.3,555.3,879.9,555.5,879.5,555.7z M819.4,429.5
			c-49.1,24-110.2,3-134.2-46.2c-3.7-7.6-5.6-11.4-6.4-13.1c1.1,2.2,3.7,7.6,6.4,13.1c-24-49.1-3-110.2,46.2-134.2
			c49.1-24,110.2-3,134.2,46.2C889.5,344.5,868.5,405.5,819.4,429.5z"/>
		<path d="M1374.6,818.4c11.6-35.1,15.3-72.9,9.8-110.4l56.7-17.9l-23-72.9l-56.8,17.9c-17.4-34.6-42-63.2-71.2-84.8l27.5-52.8
			l-67.8-35.3l-27.5,52.8c-35.1-11.6-72.9-15.3-110.4-9.8l-17.9-56.7l-72.9,23l17.9,56.8c-34.6,17.4-63.2,42-84.8,71.2L901.4,572
			l-35.3,67.8l52.8,27.5c-11.6,35.1-15.3,72.9-9.8,110.4l-56.7,17.9l23,72.9l54-17l2.8-0.9c17.4,34.6,42,63.2,71.2,84.8l-27.5,52.8
			l67.8,35.3l15.4-29.6l12.1-23.2c35.1,11.6,72.9,15.3,110.4,9.8l9.9,31.4l8,25.2l72.9-23l-7.9-25l-10-31.7
			c34.6-17.4,63.2-42,84.8-71.2l52.8,27.5l35.3-67.8L1391,827L1374.6,818.4z M1211.8,819.3c0.5-0.4,1-0.8,1.4-1.1
			C1212.9,818.4,1212.4,818.8,1211.8,819.3z M1210.2,820.6c-42.3,34.5-106.4,28.2-141.1-14.3c-34.5-42.3-28.2-106.4,14.2-141
			c42.4-34.4,106.3-28.3,141.1,14.2C1259.1,721.7,1252.6,786,1210.2,820.6z"/>
	</g>
</g>
</svg>
