<?xml version="1.0" encoding="utf-8"?>
<!-- Generator: Adobe Illustrator 27.7.0, SVG Export Plug-In . SVG Version: 6.00 Build 0)  -->
<svg version="1.1" id="Layer_1" xmlns:serif="http://www.serif.com/"
	 xmlns="http://www.w3.org/2000/svg" xmlns:xlink="http://www.w3.org/1999/xlink" x="0px" y="0px" viewBox="0 0 1920 1080"
	 style="enable-background:new 0 0 1920 1080;" xml:space="preserve">
<style type="text/css">
	.st0{fill-rule:evenodd;clip-rule:evenodd;}
</style>
<g transform="matrix(1,0,0,1,0,-120)">
	<g>
		<g>
			<g id="Page-1">
				<g id="icon" transform="translate(64.000000, 64.000000)">
					<path id="Combined-Shape" class="st0" d="M447.1,488.9v332.6H95V488.9H447.1z M195.1,612.7l-61,92.7v79.3h273.8v-66.4
						l-58.7-55.4l-60,56.8L195.1,612.7z M319.9,562.8c-16.2,0-29.3,12.4-29.3,27.8s13.1,27.8,29.3,27.8s29.3-12.4,29.3-27.8
						C349.3,575.2,336.1,562.8,319.9,562.8z"/>
				</g>
			</g>
			<path d="M201.6,948.3v30.2h266.8v-30.2H201.6z M239.7,1008.8v30.2h190.6v-30.2H239.7z"/>
		</g>
		<g>
			<g id="Page-1_00000060022633529723316960000013651778648105681339_">
				<g id="icon_00000041981265622398171590000005483478009445143434_" transform="translate(64.000000, 64.000000)">
					<path id="Combined-Shape_00000003818078081888736410000005315893993749929347_" class="st0" d="M854.9,488v332.6H502.8V488
						H854.9z M602.9,611.8l-61,92.7v79.3h273.8v-66.4L757,661.9l-60,56.8L602.9,611.8z M727.7,561.9c-16.2,0-29.3,12.4-29.3,27.8
						c0,15.3,13.1,27.8,29.3,27.8c16.2,0,29.3-12.4,29.3-27.8S744,561.9,727.7,561.9z"/>
				</g>
			</g>
			<path d="M609.5,947.4v30.2h266.8v-30.2H609.5z M647.5,1007.9v30.2h190.6v-30.2H647.5z"/>
		</g>
		<g>
			<g id="Page-1_00000108991053996823213930000002492478343089949371_">
				<g id="icon_00000018941801339942457780000010933073144392611740_" transform="translate(64.000000, 64.000000)">
					<path id="Combined-Shape_00000006676617587686203310000014174107611281534607_" class="st0" d="M1262.6,488v332.6H910.6V488
						H1262.6z M1010.8,611.8l-61,92.7v79.3h273.8v-66.4l-58.7-55.4l-60,56.8L1010.8,611.8z M1135.6,561.9
						c-16.2,0-29.3,12.4-29.3,27.8c0,15.3,13.1,27.8,29.3,27.8s29.3-12.4,29.3-27.8C1164.9,574.3,1151.7,561.9,1135.6,561.9z"/>
				</g>
			</g>
			<path d="M1017.2,947.4v30.2H1284v-30.2H1017.2z M1055.4,1007.9v30.2h190.5v-30.2H1055.4z"/>
		</g>
		<g>
			<g id="Page-1_00000147932247316255436980000011609252524732243585_">
				<g id="icon_00000165953949734052673680000001874505341859688337_" transform="translate(64.000000, 64.000000)">
					<path id="Combined-Shape_00000132774226954702349220000005622345997168621481_" class="st0" d="M1670.4,488.9v332.6h-352.1
						V488.9H1670.4z M1418.5,612.7l-61,92.7v79.3h273.8v-66.4l-58.7-55.4l-60,56.8L1418.5,612.7z M1543.3,562.8
						c-16.2,0-29.3,12.4-29.3,27.8s13.1,27.8,29.3,27.8c16.1,0,29.3-12.4,29.3-27.8C1572.6,575.2,1559.4,562.8,1543.3,562.8z"/>
				</g>
			</g>
			<path d="M1424.9,948.3v30.2h266.8v-30.2H1424.9z M1463.1,1008.8v30.2h190.5v-30.2H1463.1z"/>
		</g>
	</g>
</g>
<g>
	<rect x="808" y="141.3" width="282.5" height="49"/>
	<rect x="693.7" y="223.8" width="511.1" height="37.4"/>
</g>
</svg>
