<?xml version="1.0" encoding="utf-8"?>
<!-- Generator: Adobe Illustrator 28.0.0, SVG Export Plug-In . SVG Version: 6.00 Build 0)  -->
<svg version="1.1" id="Layer_1" xmlns:serif="http://www.serif.com/"
	 xmlns="http://www.w3.org/2000/svg" xmlns:xlink="http://www.w3.org/1999/xlink" x="0px" y="0px" viewBox="0 0 1920 1080"
	 style="enable-background:new 0 0 1920 1080;" xml:space="preserve">
<style type="text/css">
	.st0{fill-rule:evenodd;clip-rule:evenodd;}
</style>
<g transform="matrix(1,0,0,1,0,-120)">
	<g>
		<g>
			<g id="Page-1">
				<g id="icon" transform="translate(64.000000, 64.000000)">
					<path id="Combined-Shape" class="st0" d="M865.3,439v366.8H477.1V439H865.3z M587.5,575.5l-67.3,102.2v87.4h301.9v-73.2
						l-64.7-61.1l-66.2,62.6L587.5,575.5z M725.1,520.5c-17.9,0-32.3,13.7-32.3,30.6c0,16.9,14.5,30.6,32.3,30.6
						s32.3-13.7,32.3-30.6C757.5,534.2,743,520.5,725.1,520.5z"/>
				</g>
			</g>
			<path d="M588.1,939v33.3h294.2V939H588.1z M630.1,1005.7v33.3h210.2v-33.3H630.1z"/>
		</g>
		<g>
			<g id="Page-1_00000108991053996823213930000002492478343089949371_">
				<g id="icon_00000018941801339942457780000010933073144392611740_" transform="translate(64.000000, 64.000000)">
					<path id="Combined-Shape_00000006676617587686203310000014174107611281534607_" class="st0" d="M1314.9,439v366.8H926.7V439
						H1314.9z M1037.2,575.5l-67.3,102.2v87.4h301.9v-73.2l-64.7-61.1l-66.2,62.6L1037.2,575.5z M1174.8,520.5
						c-17.9,0-32.3,13.7-32.3,30.6c0,16.9,14.5,30.6,32.3,30.6s32.3-13.7,32.3-30.6S1192.6,520.5,1174.8,520.5z"/>
				</g>
			</g>
			<path d="M1037.7,939v33.3h294.2V939H1037.7z M1079.8,1005.7v33.3h210.1v-33.3H1079.8z"/>
		</g>
	</g>
</g>
<g>
	<rect x="808" y="141.3" width="282.5" height="49"/>
	<rect x="693.7" y="223.8" width="511.1" height="37.4"/>
</g>
</svg>
