<?xml version="1.0" encoding="utf-8"?>
<!-- Generator: Adobe Illustrator 27.1.1, SVG Export Plug-In . SVG Version: 6.00 Build 0)  -->
<svg version="1.1" id="Layer_1" xmlns:serif="http://www.serif.com/"
	 xmlns="http://www.w3.org/2000/svg" xmlns:xlink="http://www.w3.org/1999/xlink" x="0px" y="0px" viewBox="0 0 1920 1080"
	 style="enable-background:new 0 0 1920 1080;" xml:space="preserve">
<style type="text/css">
	.st0{fill-rule:evenodd;clip-rule:evenodd;}
	.st1{fill:#FFFFFF;}
</style>
<g>
	<g id="Page-1">
		<g id="icon" transform="translate(64.000000, 64.000000)">
			<path id="Combined-Shape" class="st0" d="M1706-64.5v819H963.8v-819H1706z M1174.9,240.4l-128.7,228.1v195.1h577.3V500.2
				l-123.7-136.5l-126.6,139.7L1174.9,240.4z M1438,117.5c-34.2,0-61.9,30.6-61.9,68.3s27.7,68.3,61.9,68.3
				c34.2,0,61.9-30.6,61.9-68.3S1472.1,117.5,1438,117.5z"/>
		</g>
	</g>
	<rect x="150" width="933.5" height="1080"/>
</g>
<rect x="247.7" y="370.6" class="st1" width="636.1" height="131.1"/>
<rect x="247.7" y="544.9" class="st1" width="454.4" height="44.6"/>
<rect x="247.7" y="617.9" class="st1" width="274.4" height="44.6"/>
<rect x="1040.4" y="793" width="729.6" height="287"/>
</svg>
