<?xml version="1.0" encoding="utf-8"?>
<!-- Generator: Adobe Illustrator 28.0.0, SVG Export Plug-In . SVG Version: 6.00 Build 0)  -->
<svg version="1.1" id="Layer_1" xmlns:serif="http://www.serif.com/"
	 xmlns="http://www.w3.org/2000/svg" xmlns:xlink="http://www.w3.org/1999/xlink" x="0px" y="0px" viewBox="0 0 1920 1080"
	 style="enable-background:new 0 0 1920 1080;" xml:space="preserve">
<style type="text/css">
	.st0{opacity:0.98;}
</style>
<path class="st0" d="M1770,0.2V0H949.2H150v0.2H-17.5v1080.3h178.2v-0.6h788.5h816.6v0.6h178.2V0.2H1770z M660.6,182
	c36.7,0,66.7,30.6,66.7,68.3s-29.8,68.3-66.7,68.3c-36.8,0-66.7-30.6-66.7-68.3S623.8,182,660.6,182z M860.3,728.1H238.7V533
	l138.6-228.1l213.5,263l136.3-139.7l133.2,136.5V728.1z M1593.2,337c33.3,0,60.3,27,60.3,60.3s-27,60.3-60.3,60.3
	c-33.3,0-60.3-27-60.3-60.3S1559.9,337,1593.2,337z M1594.6,509.5c33.3,0,60.3,27,60.3,60.3s-27,60.3-60.3,60.3
	c-33.3,0-60.3-27-60.3-60.3S1561.3,509.5,1594.6,509.5z M1595.2,797.5c-33.3,0-60.3-27-60.3-60.3s27-60.3,60.3-60.3
	c33.3,0,60.3,27,60.3,60.3S1628.5,797.5,1595.2,797.5z"/>
</svg>
