<?xml version="1.0" encoding="utf-8"?>
<!-- Generator: Adobe Illustrator 27.5.0, SVG Export Plug-In . SVG Version: 6.00 Build 0)  -->
<svg version="1.1" id="Layer_1" xmlns:serif="http://www.serif.com/"
	 xmlns="http://www.w3.org/2000/svg" xmlns:xlink="http://www.w3.org/1999/xlink" x="0px" y="0px" viewBox="0 0 1920 1080"
	 style="enable-background:new 0 0 1920 1080;" xml:space="preserve">
<style type="text/css">
	.st0{fill:none;}
	.st1{fill-rule:evenodd;clip-rule:evenodd;}
</style>
<rect x="150" class="st0" width="1620" height="1080"/>
<g>
	<g>
		<g>
			<path class="st1" d="M1027.5,435.5v51.8H808v-51.8H1027.5z M1590,357.8v51.8H808v-51.8H1590z M1485.8,280.1v51.8H808v-51.8
				H1485.8L1485.8,280.1z M1590,202.4v51.8H808v-51.8H1590z M1485.8,124.6v51.8H808v-51.8C808,124.6,1485.8,124.6,1485.8,124.6z"/>
			<g id="Page-1">
			</g>
		</g>
		<circle class="st1" cx="482" cy="303.4" r="193.4"/>
	</g>
	<g>
		<g>
			<path class="st1" d="M1027.5,905.7v51.8H808v-51.8H1027.5z M1590,828v51.8H808V828H1590z M1485.8,750.3v51.8H808v-51.8H1485.8
				L1485.8,750.3z M1590,672.6v51.8H808v-51.8H1590z M1485.8,594.8v51.8H808v-51.8C808,594.8,1485.8,594.8,1485.8,594.8z"/>
			<g id="Page-1_00000014628549516951892280000008929847080191069573_">
			</g>
		</g>
		<circle class="st1" cx="482" cy="773.6" r="193.4"/>
	</g>
</g>
</svg>
