<?xml version="1.0" encoding="utf-8"?>
<!-- Generator: Adobe Illustrator 28.0.0, SVG Export Plug-In . SVG Version: 6.00 Build 0)  -->
<svg version="1.1" id="Layer_1" xmlns:serif="http://www.serif.com/"
	 xmlns="http://www.w3.org/2000/svg" xmlns:xlink="http://www.w3.org/1999/xlink" x="0px" y="0px" viewBox="0 0 1920 1080"
	 style="enable-background:new 0 0 1920 1080;" xml:space="preserve">
<style type="text/css">
	.st0{fill-rule:evenodd;clip-rule:evenodd;}
</style>
<g>
	<g>
		<g>
			<rect x="270.1" y="20" width="505.9" height="448"/>
		</g>
		<g>
			<path class="st0" d="M1129,331v51.8H909.5V331H1129z M1691.5,253.2V305h-782v-51.8H1691.5z M1587.3,175.6v51.8H909.5v-51.8
				H1587.3L1587.3,175.6z M1691.5,97.9v51.8h-782V97.9H1691.5z M1587.3,20.1v51.8H909.5V20.1C909.5,20.1,1587.3,20.1,1587.3,20.1z"
				/>
			<g id="Page-1">
			</g>
		</g>
	</g>
	<g>
		<g>
			<rect x="270.1" y="611" width="505.9" height="448"/>
		</g>
		<g>
			<path class="st0" d="M1129,922v51.8H909.5V922H1129z M1691.5,844.2V896h-782v-51.8H1691.5z M1587.3,766.6v51.8H909.5v-51.8
				H1587.3L1587.3,766.6z M1691.5,688.9v51.8h-782v-51.8H1691.5z M1587.3,611.1v51.8H909.5V611
				C909.5,611.1,1587.3,611.1,1587.3,611.1z"/>
			<g id="Page-1_00000130627123891425388840000011631940164588743044_">
			</g>
		</g>
	</g>
</g>
</svg>
